<svg width="50" height="49" viewBox="0 0 50 49" fill="none" xmlns="http://www.w3.org/2000/svg">
<path d="M34.4482 46H14.6944C13.6947 46 12.7427 45.5725 12.0785 44.8253L3.38407 35.0441C2.81458 34.4034 2.5 33.576 2.5 32.7188V17.1047C2.5 16.3099 2.77048 15.5388 3.26696 14.9183L12.1507 3.81357C12.8149 2.98332 13.8205 2.5 14.8837 2.5H34.2602C35.2753 2.5 36.2403 2.94067 36.9051 3.70774L46.6449 14.9459C47.1964 15.5823 47.5 16.3961 47.5 17.2382V32.5808C47.5 33.4862 47.1491 34.3563 46.5211 35.0085L36.9693 44.9277C36.3095 45.6129 35.3993 46 34.4482 46Z" stroke="white" stroke-width="5"/>
<path d="M25 12V26" stroke="white" stroke-width="5" stroke-linecap="round"/>
<path d="M25 34V36" stroke="white" stroke-width="5" stroke-linecap="round"/>
</svg>
