<svg width="61" height="56" viewBox="0 0 61 56" fill="none" xmlns="http://www.w3.org/2000/svg">
<path d="M15 27L24 36" stroke="white" stroke-width="5" stroke-linecap="round"/>
<path d="M48 29V48" stroke="white" stroke-width="5" stroke-linecap="round"/>
<path d="M39 39H58" stroke="white" stroke-width="5" stroke-linecap="round"/>
<path d="M24 36L51 8.50003" stroke="white" stroke-width="5" stroke-linecap="round"/>
<path fill-rule="evenodd" clip-rule="evenodd" d="M42.3382 4.99305C38.555 2.03281 33.433 0 26.5 0C11.8645 0 0 12.3122 0 27.5C0 42.6878 11.9076 53.8775 26.5 55C32.1749 55.4365 36.7912 53.2899 40.4844 50.0266L40.5 50C42 47.5 39.5 45 37.5 46L37.4962 45.9962C34.495 48.7522 30.984 50.3302 26.8835 50.0147C14.5756 49.068 5 39.7656 5 27.5C5 14.8974 14.7988 5 26.5 5C31.6585 5 35.3753 6.30667 38.1221 8.11512C41.8367 9.37562 42.7651 7.4198 42.2797 4.99272C42.2992 4.99272 42.3187 4.99283 42.3382 4.99305Z" fill="white"/>
</svg>
