<svg width="16" height="16" viewBox="0 0 16 16" fill="none" xmlns="http://www.w3.org/2000/svg">
<path d="M15.8089 7.55263L8 0L0.191154 7.55263C0.0687347 7.67151 0 7.83246 0 8.00025C0 8.16804 0.0687347 8.329 0.191154 8.44788L8 16.0005L15.8089 8.44788C15.9313 8.329 16 8.16804 16 8.00025C16 7.83246 15.9313 7.67151 15.8089 7.55263ZM8 10.3649L5.55429 7.99947L8 5.634L10.4457 7.99947L8 10.3649Z" fill="#2684FF"/>
<path d="M8.00001 5.64968C7.23077 4.90578 6.79713 3.89769 6.7938 2.84559C6.79047 1.79349 7.21772 0.782866 7.98223 0.0344238L2.61426 5.19346L5.52682 8.01046L8.00001 5.64968Z" fill="url(#paint0_linear_201_16874)"/>
<path d="M10.4522 7.99316L8 10.3649C8.38264 10.7347 8.68618 11.1739 8.89328 11.6572C9.10038 12.1406 9.20698 12.6587 9.20698 13.1819C9.20698 13.7051 9.10038 14.2232 8.89328 14.7065C8.68618 15.1899 8.38264 15.629 8 15.9989L13.3631 10.8117L10.4522 7.99316Z" fill="url(#paint1_linear_201_16874)"/>
<defs>
<linearGradient id="paint0_linear_201_16874" x1="7.56385" y1="3.24202" x2="4.26278" y2="6.65508" gradientUnits="userSpaceOnUse">
<stop offset="0.18" stop-color="#0052CC"/>
<stop offset="1" stop-color="#2684FF"/>
</linearGradient>
<linearGradient id="paint1_linear_201_16874" x1="8.46685" y1="12.7304" x2="11.7617" y2="9.32375" gradientUnits="userSpaceOnUse">
<stop offset="0.18" stop-color="#0052CC"/>
<stop offset="1" stop-color="#2684FF"/>
</linearGradient>
</defs>
</svg>
