<svg width="100" height="81" viewBox="0 0 100 81" fill="none" xmlns="http://www.w3.org/2000/svg">
<path d="M16.7925 10.1793V78.6511H8.13208C6.47523 78.6511 5.13208 77.3079 5.13208 75.6511V10.1793C5.13208 6.95933 7.74235 4.34906 10.9623 4.34906C14.1822 4.34906 16.7925 6.95933 16.7925 10.1793Z" stroke="white" stroke-width="4"/>
<path d="M95.0945 10.1793V75.6511C95.0945 77.3079 93.7513 78.6511 92.0945 78.6511H83.4341V10.1793C83.4341 6.95933 86.0444 4.34906 89.2643 4.34906C92.4842 4.34906 95.0945 6.95933 95.0945 10.1793Z" stroke="white" stroke-width="4"/>
<path d="M15.1962 6.951L58.0763 49.8311L49.8311 58.0763L6.951 15.1961C4.67416 12.9193 4.67417 9.22784 6.951 6.951C9.22784 4.67417 12.9193 4.67417 15.1962 6.951Z" stroke="white" stroke-width="4"/>
<path d="M93.049 15.1962L50.1689 58.0763L41.9237 49.8311L84.8038 6.951C87.0807 4.67416 90.7721 4.67417 93.049 6.951C95.3258 9.22784 95.3258 12.9193 93.049 15.1962Z" stroke="white" stroke-width="4"/>
</svg>
