<svg width="16" height="16" viewBox="0 0 16 16" fill="none" xmlns="http://www.w3.org/2000/svg">
<path d="M14.7944 0H12.1934V3.769H15.9993V1.06276C16.0004 1.06276 15.8113 0.102782 14.7944 0Z" fill="#1967D2"/>
<path d="M12.1943 15.9825V15.9917V16L16.0003 12.231H15.9662L12.1943 15.9825Z" fill="#1967D2"/>
<path d="M15.9999 12.2311V12.1971L15.9658 12.2311H15.9999Z" fill="#FBBC05"/>
<path d="M16.0003 3.76904H12.1943V12.1971H16.0003V3.76904Z" fill="#FBBC05"/>
<path d="M15.9662 12.231H12.1943V15.9825L15.9662 12.231Z" fill="#EA4335"/>
<path d="M12.1943 12.2311H15.9662L16.0003 12.1971H12.1943V12.2311Z" fill="#EA4335"/>
<path d="M12.1846 15.9918H12.1939V15.9825L12.1846 15.9918Z" fill="#34A853"/>
<path d="M3.71973 12.1971V15.9918H12.1842L12.1935 12.1971H3.71973Z" fill="#34A853"/>
<path d="M12.1939 12.2311V12.1971L12.1846 15.9918L12.1939 15.9826V12.2311Z" fill="#34A853"/>
<path d="M0 12.1971V14.8355C0.0341019 15.6917 0.96002 15.9918 0.96002 15.9918H3.72021V12.1971H0Z" fill="#188038"/>
<path d="M3.72021 3.769H12.194V0H1.06749C1.06749 0 0.0682038 0.102782 0 1.16451V12.1971H3.72021V3.769Z" fill="#4285F4"/>
<path d="M6.49221 10.4911C6.29835 10.4911 6.11141 10.4658 5.93139 10.4153C5.75599 10.3648 5.59443 10.2891 5.44673 10.1881C5.29902 10.0825 5.16747 9.95163 5.05208 9.79554C4.9413 9.63945 4.8559 9.45811 4.7959 9.25151L5.64752 8.91408C5.70752 9.14363 5.80907 9.31808 5.95216 9.43745C6.09525 9.55222 6.27527 9.60961 6.49221 9.60961C6.58914 9.60961 6.68146 9.59583 6.76916 9.56829C6.85686 9.53615 6.93302 9.49254 6.99764 9.43745C7.06226 9.38236 7.11304 9.31808 7.14996 9.24463C7.19151 9.16658 7.21228 9.07936 7.21228 8.98295C7.21228 8.78095 7.13612 8.62256 6.98379 8.50779C6.83609 8.39301 6.63069 8.33563 6.36758 8.33563H5.95908V7.51615H6.33297C6.42528 7.51615 6.51529 7.50467 6.60299 7.48172C6.69069 7.45877 6.76685 7.42433 6.83147 7.37842C6.90071 7.32792 6.95379 7.26595 6.99072 7.19249C7.03226 7.11445 7.05303 7.02492 7.05303 6.92392C7.05303 6.76783 6.99764 6.64158 6.88686 6.54517C6.77608 6.44417 6.62607 6.39367 6.43682 6.39367C6.23372 6.39367 6.07679 6.44877 5.96601 6.55895C5.85984 6.66454 5.78599 6.7839 5.74445 6.91704L4.9136 6.57961C4.95514 6.46483 5.01746 6.34777 5.10054 6.2284C5.18363 6.10445 5.28748 5.99427 5.41211 5.89786C5.54135 5.79686 5.69137 5.71652 5.86215 5.65683C6.03294 5.59256 6.22911 5.56042 6.45067 5.56042C6.67684 5.56042 6.88225 5.59256 7.06688 5.65683C7.25613 5.72111 7.41768 5.81063 7.55154 5.9254C7.6854 6.03558 7.78925 6.16872 7.86311 6.32481C7.93696 6.47631 7.97389 6.64158 7.97389 6.82063C7.97389 6.95836 7.95542 7.08231 7.9185 7.19249C7.88619 7.30267 7.84234 7.40138 7.78695 7.48861C7.73156 7.57583 7.66694 7.65158 7.59308 7.71586C7.52385 7.77554 7.4523 7.82374 7.37845 7.86047V7.91556C7.60001 8.00279 7.78233 8.14281 7.92542 8.33563C8.07313 8.52845 8.14698 8.77177 8.14698 9.06558C8.14698 9.27217 8.10775 9.4627 8.02928 9.63715C7.95081 9.80701 7.83772 9.95622 7.69001 10.0848C7.54692 10.2133 7.37383 10.312 7.17074 10.3809C6.96764 10.4543 6.74146 10.4911 6.49221 10.4911Z" fill="#4285F4"/>
<path d="M9.8004 10.3809V6.73111L8.96263 7.08231L8.63029 6.31792L10.022 5.67061H10.7074V10.3809H9.8004Z" fill="#4285F4"/>
</svg>
