<svg width="21" height="14" viewBox="0 0 21 14" fill="none" xmlns="http://www.w3.org/2000/svg">
<path fill-rule="evenodd" clip-rule="evenodd" d="M0.5 5.11084C0.8 5.11084 1 5.31084 1 5.61084V13.1108H0V5.61084C0 5.31084 0.2 5.11084 0.5 5.11084ZM4.5 0.11084C4.8 0.11084 5 0.31084 5 0.61084V13.1108H4V0.61084C4 0.31084 4.2 0.11084 4.5 0.11084ZM8.5 8.11084C8.8 8.11084 9 8.31084 9 8.61084V13.1108H8V8.61084C8 8.31084 8.2 8.11084 8.5 8.11084ZM12.5 5.11084C12.8 5.11084 13 5.31084 13 5.61084V13.1108H12V5.61084C12 5.31084 12.2 5.11084 12.5 5.11084ZM16.5 0.11084C16.8 0.11084 17 0.31084 17 0.61084V13.1108H16V0.61084C16 0.31084 16.2 0.11084 16.5 0.11084ZM20.5 8.11084C20.8 8.11084 21 8.31084 21 8.61084V13.1108H20V8.61084C20 8.31084 20.2 8.11084 20.5 8.11084Z" fill="white"/>
</svg>
