<svg width="18" height="18" viewBox="0 0 18 18" fill="none" xmlns="http://www.w3.org/2000/svg">
<path id="Vector" fill-rule="evenodd" clip-rule="evenodd" d="M16 0C16.5304 0 17.0391 0.221936 17.4142 0.616984C17.7893 1.01203 18 1.54783 18 2.10651V12.6391C18 13.1978 17.7893 13.7336 17.4142 14.1286C17.0391 14.5237 16.5304 14.7456 16 14.7456H11.5L8.7 17.6947C8.55436 17.8468 8.36785 17.948 8.16575 17.9847C7.96364 18.0214 7.75572 17.9917 7.57016 17.8997C7.3846 17.8078 7.23037 17.6579 7.12838 17.4705C7.02639 17.2831 6.98157 17.0672 7 16.8521V14.7456H2C1.46957 14.7456 0.960859 14.5237 0.585786 14.1286C0.210714 13.7336 0 13.1978 0 12.6391V2.10651C0 0.947931 0.9 0 2 0H16ZM16 1.05326H2C1.73478 1.05326 1.48043 1.16422 1.29289 1.36175C1.10536 1.55927 1 1.82717 1 2.10651V12.6391C1 13.271 1.4 13.6923 2 13.6923H8V16.8521L11 13.6923H16C16.6 13.6923 17 13.271 17 12.6391V2.10651C17 1.47456 16.6 1.05326 16 1.05326Z" fill="white"/>
</svg>
