<svg width="232" height="214" viewBox="0 0 232 214" fill="none" xmlns="http://www.w3.org/2000/svg">
<rect x="65" y="1" width="152" height="177" stroke="black" stroke-width="2"/>
<rect x="51" y="104" width="181" height="110" fill="#0B2C6D"/>
<rect x="64" width="154" height="26" fill="#06509B"/>
<rect x="64" y="26" width="56" height="45" fill="#0078D4"/>
<rect x="65" y="72" width="54" height="43" stroke="black" stroke-width="2"/>
<path d="M119 144.196L75.4868 117H119V144.196Z" stroke="#032E59" stroke-width="2"/>
<rect x="120" y="26" width="53" height="45" fill="#28A8EA"/>
<rect x="173" y="26" width="45" height="45" fill="#50D9FF"/>
<rect x="173" y="71" width="45" height="45" fill="#28A8EA"/>
<path d="M173 116H216L173 142V116Z" fill="#0076D2"/>
<rect x="120" y="71" width="53" height="45" fill="#0078D4"/>
<path d="M120 116H173V142.5L144 161L120 145.5V116Z" fill="#0364B8"/>
<path d="M51 214L232 104V214H51Z" fill="#1490DF"/>
<path d="M51 100L232 214H51V100Z" fill="#28A8EA"/>
<rect y="48" width="120" height="120" fill="#0078D4"/>
<path d="M90 108.5C90 126.78 76.2492 141 60 141C43.7508 141 30 126.78 30 108.5C30 90.2202 43.7508 76 60 76C76.2492 76 90 90.2202 90 108.5Z" stroke="white" stroke-width="10"/>
</svg>
