<svg width="44" height="41" viewBox="0 0 44 41" fill="none" xmlns="http://www.w3.org/2000/svg">
<path d="M41.6579 2.11123L2.56287 15.1808" stroke="white" stroke-width="3" stroke-linecap="round"/>
<path d="M2.57431 13.9667C1.80901 13.6495 0.931484 14.0128 0.614305 14.7781C0.297126 15.5434 0.660402 16.4209 1.4257 16.7381L2.57431 13.9667ZM16.6373 19.7951L2.57431 13.9667L1.4257 16.7381L15.4887 22.5665L16.6373 19.7951Z" fill="white"/>
<path d="M35.4999 37.0001L19 23.5" stroke="white" stroke-width="3" stroke-linecap="round"/>
<path d="M33.563 9.68079L13.3083 20.8086" stroke="white" stroke-width="3"/>
<path d="M33.563 9.6808L19 23.5" stroke="white" stroke-width="3" stroke-linecap="round"/>
<path d="M14.0628 19.6809L17.5628 34.6809M17.5628 34.6809L24.563 27.1808M17.5628 34.6809L19.0629 23.6808" stroke="white" stroke-width="3"/>
<path d="M41.5 2.5L35.6605 36.9999" stroke="white" stroke-width="3" stroke-linecap="round"/>
</svg>
