<svg width="69" height="53" viewBox="0 0 69 53" fill="none" xmlns="http://www.w3.org/2000/svg">
<path d="M2.09381 50.5C3.10731 38.7339 12.9793 29.5 25.0081 29.5C37.0368 29.5 46.9088 38.7339 47.9223 50.5H47.8966H47.8553H47.814H47.7728H47.7318H47.6908H47.6499H47.6091H47.5684H47.5278H47.4873H47.4468H47.4065H47.3662H47.326H47.2859H47.2459H47.206H47.1661H47.1263H47.0867H47.047H47.0075H46.9681H46.9287H46.8894H46.8502H46.811H46.772H46.733H46.694H46.6552H46.6164H46.5777H46.539H46.5005H46.462H46.4235H46.3852H46.3469H46.3086H46.2704H46.2323H46.1943H46.1563H46.1184H46.0805H46.0427H46.0049H45.9673H45.9296H45.892H45.8545H45.8171H45.7797H45.7423H45.705H45.6677H45.6305H45.5934H45.5563H45.5192H45.4822H45.4453H45.4083H45.3715H45.3347H45.2979H45.2611H45.2245H45.1878H45.1512H45.1146H45.0781H45.0416H45.0052H44.9687H44.9324H44.896H44.8597H44.8234H44.7872H44.751H44.7148H44.6786H44.6425H44.6064H44.5704H44.5343H44.4983H44.4624H44.4264H44.3905H44.3546H44.3187H44.2828H44.247H44.2112H44.1754H44.1396H44.1038H44.0681H44.0324H43.9966H43.9609H43.9253H43.8896H43.8539H43.8183H43.7827H43.747H43.7114H43.6758H43.6402H43.6047H43.5691H43.5335H43.4979H43.4624H43.4268H43.3913H43.3557H43.3201H43.2846H43.249H43.2135H43.1779H43.1424H43.1068H43.0712H43.0357H43.0001H42.9645H42.9289H42.8933H42.8577H42.8221H42.7864H42.7508H42.7151H42.6795H42.6438H42.6081H42.5724H42.5367H42.5009H42.4652H42.4294H42.3936H42.3578H42.322H42.2861H42.2502H42.2143H42.1784H42.1424H42.1065H42.0705H42.0344H41.9984H41.9623H41.9262H41.89H41.8539H41.8177H41.7814H41.7452H41.7089H41.6725H41.6361H41.5997H41.5633H41.5268H41.4903H41.4537H41.4171H41.3805H41.3438H41.3071H41.2703H41.2335H41.1966H41.1597H41.1228H41.0858H41.0487H41.0116H40.9745H40.9373H40.9H40.8627H40.8254H40.788H40.7505H40.713H40.6755H40.6378H40.6002H40.5624H40.5246H40.4868H40.4489H40.4109H40.3728H40.3347H40.2966H40.2584H40.2201H40.1817H40.1433H40.1048H40.0662H40.0276H39.9889H39.9501H39.9113H39.8724H39.8334H39.7943H39.7552H39.716H39.6767H39.6373H39.5979H39.5584H39.5188H39.4791H39.4394H39.3995H39.3596H39.3196H39.2795H39.2394H39.1991H39.1588H39.1183H39.0778H39.0372H38.9965H38.9557H38.9149H38.8739H38.8329H38.7917H38.7505H38.7091H38.6677H38.6262H38.5845H38.5428H38.501H38.4591H38.4171H38.375H38.3327H38.2904H38.248H38.2054H38.1628H38.1201H38.0772H38.0343H37.9912H37.948H37.9048H37.8614H37.8179H37.7743H37.7305H37.6867H37.6428H37.5987H37.5545H37.5102H37.4658H37.4213H37.3766H37.3318H37.287H37.2419H37.1968H37.1516H37.1062H37.0607H37.015H36.9693H36.9234H36.8774H36.8313H36.785H36.7386H36.6921H36.6454H36.5987H36.5517H36.5047H36.4575H36.4102H36.3627H36.3151H36.2674H36.2195H36.1715H36.1234H36.0751H36.0267H35.9781H35.9294H35.8805H35.8315H35.7824H35.7331H35.6837H35.6341H35.5843H35.5344H35.4844H35.4342H35.3839H35.3334H35.2828H35.232H35.181H35.1299H35.0787H35.0273H34.9757H34.924H34.8721H34.82H34.7678H34.7154H34.6629H34.6102H34.5574H34.5043H34.4511H34.3978H34.3443H34.2906H34.2367H34.1827H34.1285H34.0741H34.0196H33.9649H33.91H33.8549H33.7997H33.7443H33.6887H33.6329H33.577H33.5209H33.4646H33.4081H33.3514H33.2946H33.2376H33.1804H33.123H33.0654H33.0076H32.9497H32.8916H32.8332H32.7747H32.716H32.6571H32.5981H32.5388H32.4793H32.4197H32.3598H32.2998H32.2395H32.1791H32.1185H32.0576H31.9966H31.9354H31.8739H31.8123H31.7505H31.6884H31.6262H31.5637H31.5011H31.4382H31.3752H31.3119H31.2484H31.1847H31.1208H31.0567H30.9924H30.9279H30.8631H30.7982H30.733H30.6676H30.602H30.5362H30.4702H30.4039H30.3374H30.2708H30.2038H30.1367H30.0693H30.0018H29.934H29.8659H29.7977H29.7292H29.6605H29.5916H29.5224H29.453H29.3834H29.3136H29.2435H29.1732H29.1026H29.0318H28.9608H28.8896H28.8181H28.7464H28.6744H28.6022H28.5298H28.4571H28.3842H28.311H28.2376H28.1639H28.0901H28.0159H27.9415H27.8669H27.792H27.7169H27.6416H27.5659H27.4901H27.4139H27.3376H27.2609H27.1841H27.1069H27.0296H26.9519H26.874H26.7959H26.7174H26.6388H26.5598H26.4807H26.4012H26.3215H26.2415H26.1613H26.0808H26H25.9194H25.8392H25.7596H25.6805H25.6019H25.5238H25.4462H25.3692H25.2926H25.2165H25.1409H25.0658H24.9912H24.917H24.8434H24.7702H24.6976H24.6254H24.5536H24.4824H24.4116H24.3413H24.2714H24.202H24.1331H24.0647H23.9966H23.9291H23.862H23.7953H23.7291H23.6634H23.5981H23.5332H23.4687H23.4047H23.3412H23.278H23.2153H23.153H23.0912H23.0297H22.9687H22.9081H22.8479H22.7882H22.7288H22.6698H22.6113H22.5531H22.4954H22.438H22.3811H22.3245H22.2683H22.2126H22.1572H22.1021H22.0475H21.9933H21.9394H21.8859H21.8328H21.78H21.7276H21.6756H21.6239H21.5726H21.5217H21.4711H21.4209H21.371H21.3214H21.2723H21.2234H21.1749H21.1268H21.0789H21.0314H20.9843H20.9375H20.891H20.8448H20.7989H20.7534H20.7082H20.6633H20.6187H20.5745H20.5305H20.4868H20.4435H20.4004H20.3577H20.3152H20.2731H20.2312H20.1897H20.1484H20.1074H20.0667H20.0262H19.9861H19.9462H19.9066H19.8673H19.8282H19.7894H19.7509H19.7126H19.6746H19.6368H19.5993H19.5621H19.5251H19.4883H19.4518H19.4156H19.3796H19.3438H19.3082H19.2729H19.2379H19.203H19.1684H19.134H19.0998H19.0659H19.0321H18.9986H18.9653H18.9322H18.8993H18.8666H18.8342H18.8019H18.7698H18.7379H18.7063H18.6748H18.6435H18.6123H18.5814H18.5507H18.5201H18.4897H18.4595H18.4294H18.3996H18.3699H18.3403H18.3109H18.2817H18.2527H18.2238H18.195H18.1664H18.138H18.1097H18.0816H18.0536H18.0257H17.998H17.9704H17.9429H17.9156H17.8884H17.8613H17.8344H17.8075H17.7808H17.7542H17.7278H17.7014H17.6752H17.649H17.623H17.597H17.5712H17.5455H17.5198H17.4943H17.4688H17.4434H17.4181H17.393H17.3678H17.3428H17.3178H17.2929H17.2681H17.2434H17.2187H17.1941H17.1696H17.1451H17.1206H17.0963H17.072H17.0477H17.0235H16.9993H16.9752H16.9511H16.927H16.903H16.8791H16.8551H16.8312H16.8073H16.7835H16.7596H16.7358H16.712H16.6882H16.6645H16.6407H16.617H16.5932H16.5695H16.5458H16.522H16.4983H16.4746H16.4508H16.4271H16.4033H16.3795H16.3557H16.3319H16.3081H16.2842H16.2603H16.2364H16.2125H16.1885H16.1645H16.1404H16.1163H16.0922H16.068H16.0438H16.0195H15.9952H15.9708H15.9463H15.9219H15.8973H15.8727H15.848H15.8232H15.7984H15.7735H15.7485H15.7235H15.6983H15.6731H15.6478H15.6224H15.597H15.5714H15.5457H15.52H15.4941H15.4682H15.4421H15.4159H15.3897H15.3633H15.3368H15.3102H15.2834H15.2566H15.2296H15.2025H15.1753H15.148H15.1205H15.0929H15.0651H15.0372H15.0092H14.981H14.9527H14.9242H14.8956H14.8668H14.8379H14.8088H14.7796H14.7502H14.7206H14.6909H14.661H14.6309H14.6006H14.5702H14.5396H14.5088H14.4779H14.4467H14.4154H14.3838H14.3521H14.3202H14.2881H14.2558H14.2233H14.1905H14.1576H14.1245H14.0911H14.0576H14.0238H13.9898H13.9556H13.9212H13.8865H13.8516H13.8165H13.7811H13.7456H13.7097H13.6737H13.6374H13.6008H13.564H13.527H13.4897H13.4522H13.4144H13.3763H13.338H13.2994H13.2605H13.2214H13.182H13.1424H13.1025H13.0623H13.0218H12.981H12.94H12.8986H12.857H12.8151H12.7729H12.7304H12.6876H12.6445H12.601H12.5573H12.5133H12.469H12.4244H12.3794H12.3341H12.2885H12.2426H12.1964H12.1498H12.103H12.0557H12.0082H11.9603H11.9121H11.8635H11.8146H11.7654H11.7158H11.6658H11.6155H11.5649H11.5139H11.4625H11.4108H11.3587H11.3062H11.2534H11.2002H11.1466H11.0927H11.0383H10.9836H10.9286H10.8731H10.8172H10.761H10.7044H10.6473H10.5899H10.5321H10.4739H10.4152H10.3562H10.2968H10.2369H10.1766H10.116H10.0549H9.99335H9.93141H9.86905H9.80626H9.74304H9.67939H9.6153H9.55079H9.48583H9.42043H9.35459H9.2883H9.22157H9.15438H9.08674H9.01865H8.9501H8.8811H8.81163H8.74169H8.67129H8.60042H8.52908H8.45726H8.38497H8.31221H8.23896H8.16523H8.09101H8.0163H7.94111H7.86542H7.78924H7.71256H7.63539H7.55771H7.47952H7.40083H7.32163H7.24193H7.1617H7.08096H6.99971H6.91793H6.83563H6.75281H6.66946H6.58557H6.50116H6.41621H6.33073H6.2447H6.15814H6.07103H5.98337H5.89517H5.80641H5.71711H5.62724H5.53682H5.44584H5.3543H5.26219H5.16951H5.07626H4.98245H4.88805H4.79309H4.69754H4.60141H4.5047H4.4074H4.30951H4.21103H4.11196H4.0123H3.91203H3.81117H3.70971H3.60763H3.50496H3.40167H3.29777H3.19326H3.08813H2.98238H2.87601H2.76902H2.6614H2.55315H2.44427H2.33476H2.22462H2.11384H2.09381Z" stroke="white" stroke-width="4"/>
<circle cx="25.5" cy="12.5" r="10.5" stroke="white" stroke-width="4"/>
<path d="M47 18.5H67" stroke="white" stroke-width="4" stroke-linecap="round"/>
<path d="M57 28.5V8.5" stroke="white" stroke-width="4" stroke-linecap="round"/>
</svg>
