<svg width="22" height="17" viewBox="0 0 22 17" fill="none" xmlns="http://www.w3.org/2000/svg">
<path id="Vector" fill-rule="evenodd" clip-rule="evenodd" d="M8.99994 9.8501C12.2999 9.8501 14.7999 10.5501 16.3999 11.9501C16.7868 12.2809 17.0635 12.7218 17.193 13.214C17.3225 13.7062 17.2987 14.2263 17.1248 14.7046C16.9508 15.1829 16.635 15.5967 16.2196 15.8908C15.8042 16.1848 15.3089 16.3451 14.7999 16.3501H3.19994C2.691 16.3451 2.19572 16.1848 1.78028 15.8908C1.36485 15.5967 1.04906 15.1829 0.875126 14.7046C0.70119 14.2263 0.677392 13.7062 0.806914 13.214C0.936435 12.7218 1.2131 12.2809 1.59994 11.9501C3.19994 10.5501 5.59994 9.8501 8.99994 9.8501ZM8.99994 10.8501C5.89994 10.8501 3.59994 11.4501 2.19994 12.7501C1.98003 12.9539 1.82625 13.219 1.75846 13.5111C1.69066 13.8031 1.71195 14.1088 1.81959 14.3887C1.92723 14.6686 2.11627 14.9097 2.36232 15.0811C2.60837 15.2525 2.90013 15.3462 3.19994 15.3501H14.7999C15.0998 15.3462 15.3915 15.2525 15.6376 15.0811C15.8836 14.9097 16.0727 14.6686 16.1803 14.3887C16.2879 14.1088 16.3092 13.8031 16.2414 13.5111C16.1736 13.219 16.0199 12.9539 15.7999 12.7501C14.3999 11.3501 11.9999 10.8501 8.99994 10.8501ZM18.4999 2.3501C18.7999 2.3501 18.9999 2.5501 18.9999 2.8501V5.3501H21.4999C21.6326 5.3501 21.7597 5.40278 21.8535 5.49654C21.9473 5.59031 21.9999 5.71749 21.9999 5.8501C21.9999 5.98271 21.9473 6.10988 21.8535 6.20365C21.7597 6.29742 21.6326 6.3501 21.4999 6.3501H18.9999V8.8501C18.9999 8.98271 18.9473 9.10988 18.8535 9.20365C18.7597 9.29742 18.6326 9.3501 18.4999 9.3501C18.3673 9.3501 18.2402 9.29742 18.1464 9.20365C18.0526 9.10988 17.9999 8.98271 17.9999 8.8501V6.3501H15.4999C15.3673 6.3501 15.2402 6.29742 15.1464 6.20365C15.0526 6.10988 14.9999 5.98271 14.9999 5.8501C14.9999 5.71749 15.0526 5.59031 15.1464 5.49654C15.2402 5.40278 15.3673 5.3501 15.4999 5.3501H17.9999V2.8501C17.9999 2.5501 18.1999 2.3501 18.4999 2.3501ZM8.99994 0.350098C10.0608 0.350098 11.0782 0.771525 11.8284 1.52167C12.5785 2.27182 12.9999 3.28923 12.9999 4.3501C12.9999 5.41096 12.5785 6.42838 11.8284 7.17852C11.0782 7.92867 10.0608 8.3501 8.99994 8.3501C7.93908 8.3501 6.92166 7.92867 6.17152 7.17852C5.42137 6.42838 4.99994 5.41096 4.99994 4.3501C4.99994 3.28923 5.42137 2.27182 6.17152 1.52167C6.92166 0.771525 7.93908 0.350098 8.99994 0.350098ZM8.99994 1.3501C8.60598 1.3501 8.21587 1.42769 7.85189 1.57846C7.48792 1.72922 7.1572 1.9502 6.87862 2.22878C6.60005 2.50735 6.37907 2.83807 6.22831 3.20205C6.07754 3.56602 5.99994 3.95613 5.99994 4.3501C5.99994 4.74406 6.07754 5.13417 6.22831 5.49815C6.37907 5.86212 6.60005 6.19284 6.87862 6.47142C7.1572 6.74999 7.48792 6.97097 7.85189 7.12174C8.21587 7.2725 8.60598 7.3501 8.99994 7.3501C9.79559 7.3501 10.5587 7.03403 11.1213 6.47142C11.6839 5.90881 11.9999 5.14575 11.9999 4.3501C11.9999 3.55445 11.6839 2.79139 11.1213 2.22878C10.5587 1.66617 9.79559 1.3501 8.99994 1.3501Z" fill="white"/>
</svg>
