<svg width="641" height="844" viewBox="0 0 641 844" fill="none" xmlns="http://www.w3.org/2000/svg">
<path fill-rule="evenodd" clip-rule="evenodd" d="M1.63399 2.17576C1.18588 3.37329 1.0189 51.3479 1.26255 108.788L1.70385 213.224L328.417 213.664L655.13 214.103V447.341V680.577L447.687 680.566C308.189 680.561 238.135 679.959 233.807 678.732C225.431 676.356 215.801 667.609 211.899 658.835C209.035 652.391 208.793 645.286 208.759 566.118L208.722 480.381L104.361 480.828L0 481.277L0.0851928 574.4C0.182312 679.461 0.734359 685.931 12.7141 722.562C24.6104 758.933 42.2691 788.757 68.0978 816.102C102.033 852.026 141.307 875.079 189.368 887.28L207.87 891.978L535.435 892.488L863 893V446.5V0H432.725C90.074 0 2.28316 0.443854 1.63399 2.17576Z" fill="white" fill-opacity="0.06"/>
</svg>
