<svg width="449" height="155" viewBox="0 0 449 155" fill="none" xmlns="http://www.w3.org/2000/svg">
<path d="M153.735 64.9167V63.9167H152.735H29.9353C32.844 53.6264 38.5522 45.1721 47.078 38.5282C56.1177 31.6141 66.204 28.1667 77.3675 28.1667H152.735H153.735V27.1667V2V1H152.735H77.3675C56.1676 1 38.0757 8.48707 23.1488 23.4402C8.38713 38.2278 1 56.2679 1 77.5C1 98.7319 8.38681 116.854 23.1448 131.807L23.1529 131.816C38.0806 146.6 56.1713 154 77.3675 154H152.735H153.735V153V127.833V126.833H152.735H77.3675C66.204 126.833 56.1177 123.386 47.078 116.472C38.5522 109.828 32.844 101.374 29.9353 91.0833H152.735H153.735V90.0833V64.9167ZM187.816 108.958V107.958H186.816H161.694H160.694V108.958C160.694 124.115 170.569 135.798 189.68 144.101C204.549 150.701 220.346 154 237.061 154C253.776 154 269.572 150.702 284.44 144.101C303.553 135.799 313.429 124.116 313.429 108.958C313.429 93.8014 303.554 82.1186 284.442 73.8159C269.573 67.2154 253.776 63.9167 237.061 63.9167C227.598 63.9167 218.048 62.7527 208.408 60.4219C201.343 58.6732 196.147 56.5514 192.738 54.101C189.353 51.6669 187.816 48.9803 187.816 46.0417C187.816 43.103 189.353 40.4164 192.738 37.9824C196.147 35.5319 201.343 33.4101 208.408 31.6613C218.048 29.3306 227.598 28.1667 237.061 28.1667C246.524 28.1667 256.075 29.3306 265.714 31.6613C272.779 33.4101 277.975 35.5319 281.384 37.9824C284.77 40.4164 286.306 43.103 286.306 46.0417V47.0417H287.306H312.429H313.429V46.0417C313.429 30.8846 303.553 19.2017 284.441 10.899C269.573 4.29868 253.776 1 237.061 1C220.346 1 204.549 4.29874 189.68 10.8993C170.569 19.2019 160.694 30.8848 160.694 46.0417C160.694 61.1984 170.569 72.8811 189.68 81.1838C204.549 87.7845 220.346 91.0833 237.061 91.0833C246.524 91.0833 256.074 92.2473 265.714 94.5779C272.779 96.3267 277.975 98.4485 281.384 100.899C284.77 103.333 286.306 106.02 286.306 108.958C286.306 111.897 284.77 114.584 281.384 117.018C277.975 119.468 272.779 121.59 265.714 123.339C256.074 125.669 246.524 126.833 237.061 126.833C227.598 126.833 218.048 125.669 208.408 123.339C201.343 121.59 196.147 119.468 192.738 117.018C189.353 114.584 187.816 111.897 187.816 108.958ZM447 154H448V153V140.417C448 113.569 437.023 92.5632 415.121 77.5C437.023 62.4368 448 41.4311 448 14.5833V2V1H447H421.877H420.877V2V14.5833C420.877 28.5905 416.118 40.3292 406.599 49.8652C397.251 59.2297 385.619 63.9167 371.633 63.9167H347.51V2V1H346.51H321.387H320.387V2V153V154H321.387H346.51H347.51V153V91.0833H371.633C385.613 91.0833 397.243 95.8502 406.593 105.38L406.599 105.387L406.605 105.393C416.118 114.758 420.877 126.41 420.877 140.417V153V154H421.877H447Z" stroke="white" stroke-width="2"/>
</svg>
