<svg width="146" height="151" viewBox="0 0 146 151" fill="none" xmlns="http://www.w3.org/2000/svg">
<path fill-rule="evenodd" clip-rule="evenodd" d="M0.276434 0.367905C0.200624 0.5704 0.172375 8.68256 0.213595 18.3953L0.288253 36.0547L55.5607 36.1292L110.833 36.2033V75.6422V115.081L75.7384 115.079C52.1386 115.078 40.2871 114.976 39.5549 114.769C38.1379 114.367 36.5086 112.888 35.8485 111.404C35.364 110.315 35.3231 109.113 35.3173 95.7265L35.311 81.229L17.6555 81.3047L0 81.3806L0.0144127 97.1269C0.0308431 114.892 0.124237 115.986 2.15094 122.18C4.16352 128.33 7.15097 133.373 11.5206 137.997C17.2617 144.072 23.906 147.97 32.0367 150.033L35.1668 150.827L90.5834 150.913L146 151V75.5V0H73.2073C15.2385 0 0.386259 0.0750526 0.276434 0.367905Z" fill="white"/>
</svg>
