<svg width="28" height="29" viewBox="0 0 28 29" fill="none" xmlns="http://www.w3.org/2000/svg">
<path fill-rule="evenodd" clip-rule="evenodd" d="M0.0530148 0.0706573C0.0384758 0.109547 0.0330583 1.66751 0.0409635 3.53286L0.0552813 6.92441L10.6555 6.93871L21.2557 6.95296V14.5273V22.1016L14.5252 22.1013C9.99918 22.1011 7.72629 22.0815 7.58587 22.0417C7.31411 21.9645 7.00166 21.6805 6.87506 21.3955C6.78214 21.1863 6.77429 20.9555 6.77318 18.3846L6.77196 15.6003L3.38598 15.6148L0 15.6294L0.00276408 18.6535C0.00591511 22.0654 0.0238262 22.2755 0.412509 23.465C0.798484 24.6462 1.37142 25.6147 2.20943 26.5027C3.31047 27.6694 4.5847 28.418 6.14402 28.8143L6.74432 28.9668L17.3722 28.9834L28 29V14.5V0H14.0397C2.92245 0 0.074077 0.0144141 0.0530148 0.0706573Z" fill="white"/>
</svg>
